{"title":"Wait Until Spring Bandini 1991 VHs","uid":7446027,"size":4341152294,"categoryP":"video","categoryS":"movies","magnet":"?xt=urn:btih:8f875589e4974ef002c8f83b9d716b1de30fdea4&amp;dn=Wait+Until+Spring+Bandini+1991+VHs&amp;tr=udp%3A%2F%2Ftracker.openbittorrent.com%3A80&amp;tr=udp%3A%2F%2Fopen.demonii.com%3A1337&amp;tr=udp%3A%2F%2Ftracker.coppersurfer.tk%3A6969&amp;tr=udp%3A%2F%2Fexodus.desync.com%3A6969","seeders":0,"leechers":2,"uploader":"doobsie101","files":4,"time":1342372287,"description":"\nMedia Info:\n\nGeneral\nComplete name                            : Wait Until Spring Bandini 1991 VHS.mpg\nFormat                                   : MPEG-PS\nFile size                                : 4.04 GiB\nDuration                                 : 1h 43mn\nOverall bit rate mode                    : Variable\nOverall bit rate                         : 5 568 Kbps\nWriting library                          : created by Nero\n\nVideo\nID                                       : 224 (0xE0)\nFormat                                   : MPEG Video\nFormat version                           : Version 2\nFormat profile                           : Main@Main\nFormat settings, BVOP                    : Yes\nFormat settings, Matrix                  : Default\nFormat settings, GOP                     : M=3, N=12\nDuration                                 : 1h 43mn\nBit rate mode                            : Variable\nBit rate                                 : 3 921 Kbps\nMaximum bit rate                         : 4 845 Kbps\nWidth                                    : 720 pixels\nHeight                                   : 480 pixels\nDisplay aspect ratio                     : 4:3\nFrame rate                               : 29.970 fps\nStandard                                 : NTSC\nColor space                              : YUV\nChroma subsampling                       : 4:2:0\nBit depth                                : 8 bits\nScan type                                : Progressive\nScan order                               : Top Field First\nCompression mode                         : Lossy\nBits/(Pixel*Frame)                       : 0.379\nStream size                              : 2.85 GiB (70%)\nWriting library                          : created by Nero\n\nAudio\nID                                       : 189 (0xBD)-160 (0xA0)\nFormat                                   : PCM\nFormat settings, Endianness              : Big\nFormat settings, Sign                    : Signed\nMuxing mode                              : DVD-Video\nDuration                                 : 1h 43mn\nBit rate mode                            : Constant\nBit rate                                 : 1 536 Kbps\nChannel(s)                               : 2 channels\nSampling rate                            : 48.0 KHz\nBit depth                                : 16 bits\nDelay relative to video                  : -164ms\nStream size                              : 1.11 GiB (28%)\n","torrent":{"xt":"urn:btih:8f875589e4974ef002c8f83b9d716b1de30fdea4","amp;dn":"Wait+Until+Spring+Bandini+1991+VHs","amp;tr":["udp%3A%2F%2Ftracker.openbittorrent.com%3A80","udp%3A%2F%2Fopen.demonii.com%3A1337","udp%3A%2F%2Ftracker.coppersurfer.tk%3A6969","udp%3A%2F%2Fexodus.desync.com%3A6969"],"infoHash":"8f875589e4974ef002c8f83b9d716b1de30fdea4","infoHashBuffer":{"type":"Buffer","data":[143,135,85,137,228,151,78,240,2,200,248,59,157,113,107,29,227,15,222,164]},"announce":[],"urlList":[]}}